<?xml version="1.0" standalone="no"?>
<!DOCTYPE svg PUBLIC "-//W3C//DTD SVG 20010904//EN"
 "http://www.w3.org/TR/2001/REC-SVG-20010904/DTD/svg10.dtd">
<svg version="1.0" xmlns="http://www.w3.org/2000/svg"
 width="514.000000pt" height="531.000000pt" viewBox="0 0 514.000000 531.000000"
 preserveAspectRatio="xMidYMid meet">

<g transform="translate(0.000000,531.000000) scale(0.100000,-0.100000)"
fill="#000000" stroke="none">
<path d="M0 2655 l0 -2655 2510 0 2510 0 60 60 60 60 0 2530 0 2531 -66 64
-65 65 -2505 0 -2504 0 0 -2655z m4002 1335 c52 -15 94 -67 108 -135 10 -46 9
-81 -5 -188 -21 -171 -86 -605 -185 -1242 -43 -280 -88 -577 -100 -660 -24
-174 -51 -283 -85 -341 -47 -79 -119 -124 -202 -124 -78 0 -217 63 -344 156
-35 26 -245 168 -465 315 -424 282 -436 293 -450 377 -11 72 28 134 159 254
211 192 752 705 815 772 45 49 62 74 62 94 0 35 -17 52 -51 52 -28 0 -256
-149 -776 -508 -134 -92 -302 -208 -375 -258 -222 -152 -333 -199 -461 -192
-46 3 -161 28 -324 71 -383 101 -457 135 -457 211 0 70 45 107 235 192 609
272 2008 866 2519 1069 235 93 299 108 382 85z"/>
</g>
</svg>
