<svg width="26" height="26" viewBox="0 0 26 26" fill="none" xmlns="http://www.w3.org/2000/svg">
<path d="M25.6139 16.1448C23.8773 23.1091 16.8219 27.3475 9.85518 25.6108C2.89135 23.8746 -1.34798 16.8204 0.389419 9.85657C2.12529 2.89145 9.18065 -1.34724 16.1452 0.389004C23.1115 2.12525 27.3506 9.18022 25.6137 16.1449L25.6139 16.1448H25.6139Z" fill="#50AF95"/>
<path fill-rule="evenodd" clip-rule="evenodd" d="M14.6482 14.4739C14.5562 14.4808 14.0812 14.5091 13.0216 14.5091C12.1788 14.5091 11.5804 14.4838 11.3704 14.4739C8.11337 14.3306 5.68226 13.7638 5.68226 13.0851C5.68226 12.4064 8.11337 11.8403 11.3704 11.6948V13.9093C11.5834 13.9246 12.1933 13.9606 13.0361 13.9606C14.0475 13.9606 14.5539 13.9185 14.6451 13.9101V11.6963C17.8953 11.8411 20.321 12.4079 20.321 13.0851C20.321 13.7622 17.8961 14.3291 14.6451 14.4731L14.6482 14.4739ZM14.6482 11.4673V9.48564H19.184V6.46371H6.83463V9.48564H11.3697V11.4666C7.68357 11.6358 4.9115 12.3659 4.9115 13.2406C4.9115 14.1154 7.68357 14.8447 11.3697 15.0147V21.365H14.6474V15.0124C18.3251 14.8431 21.0926 14.1139 21.0926 13.2399C21.0926 12.3659 18.3274 11.6366 14.6474 11.4666L14.6482 11.4673Z" fill="white"/>
</svg>
