<svg width="22" height="18" viewBox="0 0 22 18" fill="none" xmlns="http://www.w3.org/2000/svg">
<path d="M20.5075 2.54324C20.4033 2.57386 20.2992 2.60236 20.195 2.62891C19.5582 2.79065 19.4997 2.57722 19.9607 2.10633C20.1672 1.89532 20.3496 1.66582 20.508 1.41794C20.8631 0.862097 20.5551 0.619693 19.951 0.879339C19.7355 0.971961 19.5164 1.05594 19.2943 1.13081C18.6717 1.34112 17.7884 1.02388 17.2337 0.669973C16.5334 0.223246 15.7376 0 14.8459 0C13.5968 0 12.5322 0.44313 11.6514 1.32869C10.7709 2.21471 10.3304 3.28598 10.3304 4.54214C10.3304 4.71393 10.3402 4.88834 10.3594 5.06518C10.3911 5.35302 9.90918 5.56168 9.25888 5.46929C7.85218 5.26951 6.51568 4.84072 5.24909 4.18342C3.99296 3.53163 2.88432 2.7114 1.92338 1.72271C1.46403 1.25018 0.842761 1.29088 0.671247 1.92875C0.568487 2.31112 0.517379 2.70878 0.517379 3.12181C0.517379 3.90016 0.699075 4.62205 1.06254 5.28749C1.24331 5.61864 1.45501 5.91844 1.69811 6.18669C2.10702 6.63823 2.04444 6.90022 1.47526 6.73968C0.906306 6.57915 0.489357 6.34081 0.489357 6.35637C0.489357 6.37193 0.489357 6.3846 0.489357 6.3846C0.489357 7.4812 0.831645 8.44476 1.51665 9.27433C1.93861 9.78541 2.42882 10.1802 2.98708 10.4583C3.57578 10.7516 3.85001 10.9152 3.52082 10.9581C3.32222 10.9839 3.12241 10.9968 2.92144 10.9968C2.78541 10.9968 2.6427 10.9906 2.4938 10.978C2.25832 10.9579 2.21599 11.4515 2.57301 12.0061C2.85677 12.4469 3.21997 12.8347 3.66241 13.1698C4.11243 13.5107 4.59744 13.7555 5.11664 13.9045C5.7484 14.0857 5.87518 14.4157 5.3119 14.7554C3.91807 15.5968 2.37558 16.0174 0.684656 16.0174C0.494138 16.0174 0.312403 16.0131 0.138791 16.0047C-0.162572 15.9901 0.0396061 16.2571 0.621383 16.5636C2.43931 17.5215 4.40804 18 6.52784 18C8.13054 18 9.63568 17.7447 11.0431 17.2338C12.45 16.723 13.6523 16.0384 14.6494 15.1806C15.6465 14.3228 16.5064 13.3363 17.2287 12.2205C17.9509 11.1048 18.4889 9.93996 18.8433 8.72614C19.1972 7.51205 19.3745 6.29558 19.3745 5.07672C19.3745 4.96689 19.3735 4.86829 19.3719 4.78145C19.3685 4.61826 19.7976 4.17654 20.2767 3.72457C20.4929 3.52048 20.6991 3.30631 20.8961 3.08166C21.3305 2.58559 21.1381 2.35828 20.5075 2.54324Z" fill="#F6F6F8"/>
</svg>
